<mxfile host="Electron" modified="2023-10-11T12:07:42.595Z" agent="Mozilla/5.0 (X11; Linux x86_64) AppleWebKit/537.36 (KHTML, like Gecko) draw.io/22.0.2 Chrome/114.0.5735.289 Electron/25.8.4 Safari/537.36" etag="1H5sifqRBMPhSiGPa8xz" version="22.0.2" type="device">
  <diagram id="HbHYC7H_CcWS17Nb0F2i" name="第 1 页">
    <mxGraphModel dx="1229" dy="1144" grid="1" gridSize="10" guides="1" tooltips="1" connect="1" arrows="1" fold="1" page="1" pageScale="1" pageWidth="827" pageHeight="1169" math="1" shadow="0">
      <root>
        <mxCell id="0" />
        <mxCell id="1" parent="0" />
        <mxCell id="pm4lYr7Q_c_GhF8r31mS-1" value="" style="endArrow=blockThin;html=1;rounded=0;endFill=1;" parent="1" edge="1">
          <mxGeometry width="50" height="50" relative="1" as="geometry">
            <mxPoint x="160" y="600" as="sourcePoint" />
            <mxPoint x="560" y="600" as="targetPoint" />
          </mxGeometry>
        </mxCell>
        <mxCell id="pm4lYr7Q_c_GhF8r31mS-2" value="" style="endArrow=blockThin;html=1;rounded=0;endFill=1;" parent="1" edge="1">
          <mxGeometry width="50" height="50" relative="1" as="geometry">
            <mxPoint x="360" y="800" as="sourcePoint" />
            <mxPoint x="360" y="400" as="targetPoint" />
          </mxGeometry>
        </mxCell>
        <mxCell id="pm4lYr7Q_c_GhF8r31mS-4" value="" style="ellipse;whiteSpace=wrap;html=1;aspect=fixed;fillColor=none;dashed=1;" parent="1" vertex="1">
          <mxGeometry x="200" y="440" width="320" height="320" as="geometry" />
        </mxCell>
        <mxCell id="pm4lYr7Q_c_GhF8r31mS-6" value="$$N$$" style="text;html=1;strokeColor=none;fillColor=none;align=center;verticalAlign=middle;whiteSpace=wrap;rounded=0;" parent="1" vertex="1">
          <mxGeometry x="330" y="370" width="60" height="30" as="geometry" />
        </mxCell>
        <mxCell id="pm4lYr7Q_c_GhF8r31mS-7" value="$$\boldsymbol{M}_{meas}$$" style="text;html=1;strokeColor=none;fillColor=none;align=center;verticalAlign=middle;whiteSpace=wrap;rounded=0;" parent="1" vertex="1">
          <mxGeometry x="414" y="430" width="60" height="30" as="geometry" />
        </mxCell>
        <mxCell id="pm4lYr7Q_c_GhF8r31mS-8" value="$$E$$" style="text;html=1;strokeColor=none;fillColor=none;align=center;verticalAlign=middle;whiteSpace=wrap;rounded=0;" parent="1" vertex="1">
          <mxGeometry x="550" y="585" width="60" height="30" as="geometry" />
        </mxCell>
        <mxCell id="pm4lYr7Q_c_GhF8r31mS-9" value="$$M_{meas_N}$$" style="text;html=1;strokeColor=none;fillColor=none;align=center;verticalAlign=middle;whiteSpace=wrap;rounded=0;" parent="1" vertex="1">
          <mxGeometry x="430" y="550" width="60" height="30" as="geometry" />
        </mxCell>
        <mxCell id="pm4lYr7Q_c_GhF8r31mS-10" value="" style="endArrow=blockThin;html=1;rounded=0;endFill=1;" parent="1" edge="1">
          <mxGeometry width="50" height="50" relative="1" as="geometry">
            <mxPoint x="200" y="760" as="sourcePoint" />
            <mxPoint x="520" y="440" as="targetPoint" />
          </mxGeometry>
        </mxCell>
        <mxCell id="pm4lYr7Q_c_GhF8r31mS-11" value="" style="endArrow=blockThin;html=1;rounded=0;endFill=1;" parent="1" edge="1">
          <mxGeometry width="50" height="50" relative="1" as="geometry">
            <mxPoint x="200" y="440" as="sourcePoint" />
            <mxPoint x="520" y="760" as="targetPoint" />
          </mxGeometry>
        </mxCell>
        <mxCell id="pm4lYr7Q_c_GhF8r31mS-13" value="$$X$$" style="text;html=1;strokeColor=none;fillColor=none;align=center;verticalAlign=middle;whiteSpace=wrap;rounded=0;" parent="1" vertex="1">
          <mxGeometry x="500" y="410" width="60" height="30" as="geometry" />
        </mxCell>
        <mxCell id="pm4lYr7Q_c_GhF8r31mS-14" value="$$Y$$" style="text;html=1;strokeColor=none;fillColor=none;align=center;verticalAlign=middle;whiteSpace=wrap;rounded=0;" parent="1" vertex="1">
          <mxGeometry x="500" y="760" width="60" height="30" as="geometry" />
        </mxCell>
        <mxCell id="pm4lYr7Q_c_GhF8r31mS-15" value="" style="endArrow=blockThin;html=1;rounded=0;endFill=1;entryX=0.709;entryY=0.05;entryDx=0;entryDy=0;entryPerimeter=0;strokeWidth=2;" parent="1" target="pm4lYr7Q_c_GhF8r31mS-4" edge="1">
          <mxGeometry width="50" height="50" relative="1" as="geometry">
            <mxPoint x="360" y="600" as="sourcePoint" />
            <mxPoint x="420" y="470" as="targetPoint" />
          </mxGeometry>
        </mxCell>
        <mxCell id="pm4lYr7Q_c_GhF8r31mS-16" value="" style="endArrow=none;dashed=1;html=1;rounded=0;" parent="1" edge="1">
          <mxGeometry width="50" height="50" relative="1" as="geometry">
            <mxPoint x="429" y="600" as="sourcePoint" />
            <mxPoint x="429" y="460" as="targetPoint" />
          </mxGeometry>
        </mxCell>
        <mxCell id="pm4lYr7Q_c_GhF8r31mS-17" value="" style="endArrow=none;dashed=1;html=1;rounded=0;" parent="1" edge="1">
          <mxGeometry width="50" height="50" relative="1" as="geometry">
            <mxPoint x="360" y="456" as="sourcePoint" />
            <mxPoint x="422" y="456" as="targetPoint" />
          </mxGeometry>
        </mxCell>
        <mxCell id="pm4lYr7Q_c_GhF8r31mS-18" value="$$M_{meas_E}$$" style="text;html=1;strokeColor=none;fillColor=none;align=center;verticalAlign=middle;whiteSpace=wrap;rounded=0;" parent="1" vertex="1">
          <mxGeometry x="370" y="600" width="60" height="30" as="geometry" />
        </mxCell>
        <mxCell id="pm4lYr7Q_c_GhF8r31mS-19" value="" style="endArrow=blockThin;html=1;rounded=0;endFill=1;strokeWidth=2;entryX=0.594;entryY=0;entryDx=0;entryDy=0;entryPerimeter=0;" parent="1" target="pm4lYr7Q_c_GhF8r31mS-4" edge="1">
          <mxGeometry width="50" height="50" relative="1" as="geometry">
            <mxPoint x="360" y="600" as="sourcePoint" />
            <mxPoint x="380" y="490" as="targetPoint" />
          </mxGeometry>
        </mxCell>
        <mxCell id="pm4lYr7Q_c_GhF8r31mS-20" value="$$\psi^{DECLINATION}$$" style="text;html=1;strokeColor=none;fillColor=none;align=center;verticalAlign=middle;whiteSpace=wrap;rounded=0;" parent="1" vertex="1">
          <mxGeometry x="180" y="370" width="60" height="30" as="geometry" />
        </mxCell>
        <mxCell id="pm4lYr7Q_c_GhF8r31mS-21" value="$$\psi_{meas}=-\arctan\left(\dfrac{M_{meas_{E}}}{M_{meas_{N}}}\right)+\psi^{DECLINATION}$$" style="text;html=1;strokeColor=none;fillColor=none;align=center;verticalAlign=middle;whiteSpace=wrap;rounded=0;" parent="1" vertex="1">
          <mxGeometry x="570" y="310" width="60" height="30" as="geometry" />
        </mxCell>
        <mxCell id="pm4lYr7Q_c_GhF8r31mS-26" value="" style="curved=1;endArrow=open;html=1;rounded=0;endFill=0;" parent="1" edge="1">
          <mxGeometry width="50" height="50" relative="1" as="geometry">
            <mxPoint x="465" y="340" as="sourcePoint" />
            <mxPoint x="385" y="520" as="targetPoint" />
            <Array as="points">
              <mxPoint x="465" y="410" />
              <mxPoint x="395" y="454.5" />
            </Array>
          </mxGeometry>
        </mxCell>
        <mxCell id="pm4lYr7Q_c_GhF8r31mS-27" value="" style="curved=1;endArrow=open;html=1;rounded=0;endFill=0;exitX=0.25;exitY=1;exitDx=0;exitDy=0;" parent="1" source="pm4lYr7Q_c_GhF8r31mS-20" edge="1">
          <mxGeometry width="50" height="50" relative="1" as="geometry">
            <mxPoint x="230" y="390" as="sourcePoint" />
            <mxPoint x="370" y="515" as="targetPoint" />
            <Array as="points">
              <mxPoint x="270" y="430" />
              <mxPoint x="310" y="435" />
              <mxPoint x="370" y="465" />
            </Array>
          </mxGeometry>
        </mxCell>
        <mxCell id="pm4lYr7Q_c_GhF8r31mS-28" value="$$\boldsymbol{M}_{declination}$$" style="text;html=1;strokeColor=none;fillColor=none;align=center;verticalAlign=middle;whiteSpace=wrap;rounded=0;" parent="1" vertex="1">
          <mxGeometry x="360" y="410" width="60" height="30" as="geometry" />
        </mxCell>
        <mxCell id="21rV8mTMvlJLVHiCJ_5v-1" value="Measurement" style="text;html=1;strokeColor=none;fillColor=none;align=center;verticalAlign=middle;whiteSpace=wrap;rounded=0;fontSize=14;" parent="1" vertex="1">
          <mxGeometry x="330" y="280" width="80" height="30" as="geometry" />
        </mxCell>
        <mxCell id="21rV8mTMvlJLVHiCJ_5v-2" value="Prediction" style="text;html=1;strokeColor=none;fillColor=none;align=center;verticalAlign=middle;whiteSpace=wrap;rounded=0;fontSize=14;" parent="1" vertex="1">
          <mxGeometry x="920" y="280" width="70" height="30" as="geometry" />
        </mxCell>
        <mxCell id="21rV8mTMvlJLVHiCJ_5v-3" value="" style="endArrow=blockThin;html=1;rounded=0;endFill=1;" parent="1" edge="1">
          <mxGeometry width="50" height="50" relative="1" as="geometry">
            <mxPoint x="760" y="600" as="sourcePoint" />
            <mxPoint x="1160" y="600" as="targetPoint" />
          </mxGeometry>
        </mxCell>
        <mxCell id="21rV8mTMvlJLVHiCJ_5v-4" value="" style="endArrow=blockThin;html=1;rounded=0;endFill=1;" parent="1" edge="1">
          <mxGeometry width="50" height="50" relative="1" as="geometry">
            <mxPoint x="960" y="800" as="sourcePoint" />
            <mxPoint x="960" y="400" as="targetPoint" />
          </mxGeometry>
        </mxCell>
        <mxCell id="21rV8mTMvlJLVHiCJ_5v-5" value="" style="ellipse;whiteSpace=wrap;html=1;aspect=fixed;fillColor=none;dashed=1;" parent="1" vertex="1">
          <mxGeometry x="800" y="440" width="320" height="320" as="geometry" />
        </mxCell>
        <mxCell id="21rV8mTMvlJLVHiCJ_5v-6" value="$$N$$" style="text;html=1;strokeColor=none;fillColor=none;align=center;verticalAlign=middle;whiteSpace=wrap;rounded=0;" parent="1" vertex="1">
          <mxGeometry x="930" y="370" width="60" height="30" as="geometry" />
        </mxCell>
        <mxCell id="21rV8mTMvlJLVHiCJ_5v-8" value="$$E$$" style="text;html=1;strokeColor=none;fillColor=none;align=center;verticalAlign=middle;whiteSpace=wrap;rounded=0;" parent="1" vertex="1">
          <mxGeometry x="1150" y="585" width="60" height="30" as="geometry" />
        </mxCell>
        <mxCell id="21rV8mTMvlJLVHiCJ_5v-10" value="" style="endArrow=blockThin;html=1;rounded=0;endFill=1;" parent="1" edge="1">
          <mxGeometry width="50" height="50" relative="1" as="geometry">
            <mxPoint x="800" y="760" as="sourcePoint" />
            <mxPoint x="1120" y="440" as="targetPoint" />
          </mxGeometry>
        </mxCell>
        <mxCell id="21rV8mTMvlJLVHiCJ_5v-11" value="" style="endArrow=blockThin;html=1;rounded=0;endFill=1;" parent="1" edge="1">
          <mxGeometry width="50" height="50" relative="1" as="geometry">
            <mxPoint x="800" y="440" as="sourcePoint" />
            <mxPoint x="1120" y="760" as="targetPoint" />
          </mxGeometry>
        </mxCell>
        <mxCell id="21rV8mTMvlJLVHiCJ_5v-12" value="$$X$$" style="text;html=1;strokeColor=none;fillColor=none;align=center;verticalAlign=middle;whiteSpace=wrap;rounded=0;" parent="1" vertex="1">
          <mxGeometry x="1100" y="410" width="60" height="30" as="geometry" />
        </mxCell>
        <mxCell id="21rV8mTMvlJLVHiCJ_5v-13" value="$$Y$$" style="text;html=1;strokeColor=none;fillColor=none;align=center;verticalAlign=middle;whiteSpace=wrap;rounded=0;" parent="1" vertex="1">
          <mxGeometry x="1100" y="760" width="60" height="30" as="geometry" />
        </mxCell>
        <mxCell id="21rV8mTMvlJLVHiCJ_5v-22" value="" style="endArrow=none;dashed=1;html=1;rounded=0;" parent="1" edge="1">
          <mxGeometry width="50" height="50" relative="1" as="geometry">
            <mxPoint x="1074" y="600" as="sourcePoint" />
            <mxPoint x="1074" y="490" as="targetPoint" />
          </mxGeometry>
        </mxCell>
        <mxCell id="21rV8mTMvlJLVHiCJ_5v-23" value="" style="endArrow=none;dashed=1;html=1;rounded=0;" parent="1" edge="1">
          <mxGeometry width="50" height="50" relative="1" as="geometry">
            <mxPoint x="960" y="487" as="sourcePoint" />
            <mxPoint x="1070" y="487" as="targetPoint" />
          </mxGeometry>
        </mxCell>
        <mxCell id="21rV8mTMvlJLVHiCJ_5v-24" value="$$\boldsymbol{R}=\left[\begin{array}{ccc} R_{11} &amp;amp; R_{12} &amp;amp; R_{13} \\ R_{21} &amp;amp; R_{22} &amp;amp; R_{23} \\ R_{31} &amp;amp; R_{32} &amp;amp; R_{33} \end{array}\right]$$" style="text;html=1;strokeColor=none;fillColor=none;align=center;verticalAlign=middle;whiteSpace=wrap;rounded=0;" parent="1" vertex="1">
          <mxGeometry x="1250" y="370" width="60" height="30" as="geometry" />
        </mxCell>
        <mxCell id="21rV8mTMvlJLVHiCJ_5v-25" value="" style="endArrow=blockThin;html=1;rounded=0;endFill=1;strokeWidth=2;" parent="1" edge="1">
          <mxGeometry width="50" height="50" relative="1" as="geometry">
            <mxPoint x="960" y="600" as="sourcePoint" />
            <mxPoint x="1070" y="490" as="targetPoint" />
          </mxGeometry>
        </mxCell>
        <mxCell id="21rV8mTMvlJLVHiCJ_5v-26" value="" style="endArrow=blockThin;html=1;rounded=0;endFill=1;strokeWidth=2;" parent="1" edge="1">
          <mxGeometry width="50" height="50" relative="1" as="geometry">
            <mxPoint x="962" y="600" as="sourcePoint" />
            <mxPoint x="1073" y="600" as="targetPoint" />
          </mxGeometry>
        </mxCell>
        <mxCell id="21rV8mTMvlJLVHiCJ_5v-27" value="" style="endArrow=blockThin;html=1;rounded=0;endFill=1;strokeWidth=2;" parent="1" edge="1">
          <mxGeometry width="50" height="50" relative="1" as="geometry">
            <mxPoint x="960" y="600" as="sourcePoint" />
            <mxPoint x="960" y="489" as="targetPoint" />
          </mxGeometry>
        </mxCell>
        <mxCell id="21rV8mTMvlJLVHiCJ_5v-28" value="$$R_{11}$$" style="text;html=1;strokeColor=none;fillColor=none;align=center;verticalAlign=middle;whiteSpace=wrap;rounded=0;" parent="1" vertex="1">
          <mxGeometry x="915" y="529" width="60" height="30" as="geometry" />
        </mxCell>
        <mxCell id="21rV8mTMvlJLVHiCJ_5v-29" value="$$R_{21}$$" style="text;html=1;strokeColor=none;fillColor=none;align=center;verticalAlign=middle;whiteSpace=wrap;rounded=0;" parent="1" vertex="1">
          <mxGeometry x="985" y="600" width="60" height="30" as="geometry" />
        </mxCell>
        <mxCell id="21rV8mTMvlJLVHiCJ_5v-30" value="$$\psi_{pred}$$" style="text;html=1;strokeColor=none;fillColor=none;align=center;verticalAlign=middle;whiteSpace=wrap;rounded=0;" parent="1" vertex="1">
          <mxGeometry x="950" y="540" width="60" height="30" as="geometry" />
        </mxCell>
        <mxCell id="21rV8mTMvlJLVHiCJ_5v-31" value="$$\psi_{pred}=\arctan\left(R_{21}/R_{11}\right)$$" style="text;html=1;strokeColor=none;fillColor=none;align=center;verticalAlign=middle;whiteSpace=wrap;rounded=0;" parent="1" vertex="1">
          <mxGeometry x="1040" y="370" width="60" height="30" as="geometry" />
        </mxCell>
        <mxCell id="21rV8mTMvlJLVHiCJ_5v-32" value="" style="curved=1;endArrow=open;html=1;rounded=0;endFill=0;" parent="1" edge="1">
          <mxGeometry width="50" height="50" relative="1" as="geometry">
            <mxPoint x="1005" y="400" as="sourcePoint" />
            <mxPoint x="990" y="540" as="targetPoint" />
            <Array as="points">
              <mxPoint x="980" y="450" />
              <mxPoint x="1020" y="500" />
            </Array>
          </mxGeometry>
        </mxCell>
      </root>
    </mxGraphModel>
  </diagram>
</mxfile>
